<svg width="60" height="60" viewBox="0 0 60 60" fill="none" xmlns="http://www.w3.org/2000/svg">
<g clip-path="url(#clip0_206_860)">
<path d="M60 29.0607C60 28.9922 59.9914 28.926 59.9766 28.8621C59.6955 21.2757 56.6103 14.184 51.2132 8.78677C45.5469 3.12059 38.0133 0 30 0C21.9867 0 14.4531 3.12059 8.78677 8.78677C3.12059 14.4531 0 21.9867 0 30C0 38.0133 3.12059 45.5469 8.78677 51.2132C14.4531 56.8794 21.9867 60 30 60C38.0133 60 45.5469 56.8794 51.2132 51.2132C56.8794 45.5469 60 38.0133 60 30C60 29.7308 59.9959 29.4622 59.9888 29.1942C59.9954 29.1505 60 29.1061 60 29.0607ZM10.0322 10.0322C15.3658 4.69855 22.4571 1.76125 30 1.76125C37.5429 1.76125 44.6342 4.69855 49.9678 10.0322C54.8701 14.9345 57.7459 21.3221 58.1793 28.18H55.3033V28.1213C55.3033 27.635 54.909 27.2407 54.4227 27.2407H51.546V25.3033C51.546 24.817 51.1517 24.4227 50.6654 24.4227H48.728V22.4853C48.728 21.999 48.3337 21.6047 47.8474 21.6047C47.361 21.6047 46.9667 21.999 46.9667 22.4853V24.4227H46.908C46.4217 24.4227 46.0274 24.817 46.0274 25.3033V25.362H44.9706V15.91C44.9706 15.4236 44.5764 15.0294 44.09 15.0294H40.3327C39.8463 15.0294 39.4521 15.4236 39.4521 15.91V24.4227H38.3953V22.4853C38.3953 21.999 38.001 21.6047 37.5147 21.6047H34.638V15.91C34.638 15.6007 34.4757 15.314 34.2105 15.1549L29.5138 12.3369C29.2416 12.1737 28.9029 12.1694 28.6268 12.3257C28.3508 12.482 28.18 12.7747 28.18 13.092V17.8474H26.184V11.231C26.184 11.2301 26.184 11.2292 26.184 11.2282V7.45597C26.184 6.96963 25.7897 6.57534 25.3033 6.57534C24.817 6.57534 24.4227 6.96963 24.4227 7.45597V10.6171L20.2795 12.2743C19.9452 12.408 19.726 12.7317 19.726 13.0919V22.544H17.7299V20.6067C17.7299 20.1203 17.3357 19.726 16.8493 19.726H13.092C12.6056 19.726 12.2114 20.1203 12.2114 20.6067V23.7677L10.2153 24.5662V22.4853C10.2153 21.999 9.82098 21.6047 9.33464 21.6047C8.8483 21.6047 8.45401 21.999 8.45401 22.4853V25.2707L8.06818 25.425C7.73389 25.5587 7.51468 25.8825 7.51468 26.2427V27.2407H4.63796C4.15162 27.2407 3.75734 27.635 3.75734 28.1213V29.1194H1.77628C1.99573 21.9066 4.90673 15.1577 10.0322 10.0322ZM58.2387 30C58.2387 31.2875 58.1512 32.5613 57.9827 33.816H55.3033V29.9413H58.238C58.238 29.9609 58.2387 29.9804 58.2387 30ZM51.546 33.816V29.002H53.5421V33.816H51.546ZM44.9706 33.816V27.1233H46.0274V33.816H44.9706ZM38.3953 33.816V30.9393V26.184H39.4521V33.816H38.3953ZM32.7593 33.816V32.6247L36.6341 31.9789V33.816H32.7593ZM30 52.6027C29.5137 52.6027 29.1194 52.997 29.1194 53.4834V58.2238C25.577 58.116 22.147 57.3585 18.9659 56.0084L30 36.4863L41.0341 56.0083C37.853 57.3584 34.423 58.1159 30.8806 58.2237V53.4834C30.8806 52.997 30.4863 52.6027 30 52.6027ZM21.4873 33.816V13.6882L24.4227 12.5141V33.816H21.4873ZM17.7299 33.816V30V24.3053H19.726V33.816H17.7299ZM12.0939 33.816V30.8806H15.9687V33.816H12.0939ZM9.27593 33.816V26.8389L12.2114 25.6647V29.1194H11.2133C10.727 29.1194 10.3327 29.5137 10.3327 30V33.816H9.27593ZM5.51859 33.816V29.002H7.51468V33.816H5.51859ZM2.01734 33.816C1.88736 32.8482 1.80622 31.8689 1.77616 30.8806H3.75734V33.816H2.01734ZM15.9687 29.1194H13.9726V24.3817C13.9726 24.3808 13.9726 24.3798 13.9726 24.3789V21.4873H15.9687V29.1194ZM26.184 19.6086H28.18V33.816H26.184V19.6086ZM30.0161 33.816C30.0156 33.816 30.0151 33.816 30.0148 33.816H29.9853C29.9849 33.816 29.9844 33.816 29.984 33.816H29.9413V14.6474L32.8767 16.4086V30.8196L31.7339 31.01C31.3092 31.0808 30.998 31.4481 30.998 31.8787V33.816H30.0161ZM36.6341 30.1933L34.638 30.5259V23.3659H36.6341V30.1933ZM41.2133 16.7906H43.2094V33.816H41.2133V16.7906ZM47.7886 26.184H49.7847V33.816H47.7886V26.184ZM2.30888 35.5773H20.6067H25.3033H28.4907L17.3613 55.2679C14.6843 53.9257 12.2115 52.1469 10.0322 49.9678C6.03816 45.9739 3.38818 40.9941 2.30888 35.5773ZM49.9678 49.9678C47.7886 52.147 45.3157 53.9257 42.6387 55.2679L31.5093 35.5773H40.3327H44.09H46.908H50.6654H57.6911C56.6118 40.9941 53.9618 45.9739 49.9678 49.9678Z" fill="#15803D"/>
<path d="M30.8806 47.8474C30.8806 47.361 30.4864 46.9667 30 46.9667C29.5137 46.9667 29.1194 47.361 29.1194 47.8474V50.6654C29.1194 51.1517 29.5137 51.546 30 51.546C30.4864 51.546 30.8806 51.1517 30.8806 50.6654V47.8474Z" fill="#15803D"/>
<path d="M30 45.91C30.4864 45.91 30.8806 45.5157 30.8806 45.0293V44.09C30.8806 43.6037 30.4864 43.2094 30 43.2094C29.5137 43.2094 29.1194 43.6037 29.1194 44.09V45.0293C29.1194 45.5157 29.5137 45.91 30 45.91Z" fill="#15803D"/>
<path d="M30 42.1526C30.2313 42.1526 30.4591 42.0587 30.6223 41.8943C30.7867 41.7311 30.8806 41.5033 30.8806 41.272C30.8806 41.0407 30.7867 40.8129 30.6223 40.6497C30.4591 40.4853 30.2325 40.3914 30 40.3914C29.7675 40.3914 29.5409 40.4853 29.3777 40.6497C29.2133 40.8129 29.1194 41.0407 29.1194 41.272C29.1194 41.5033 29.2133 41.7311 29.3777 41.8943C29.5409 42.0587 29.7687 42.1526 30 42.1526Z" fill="#15803D"/>
</g>
<defs>
<clipPath id="clip0_206_860">
<rect width="60" height="60" fill="white"/>
</clipPath>
</defs>
</svg>
