<svg width="15" height="13" viewBox="0 0 15 13" fill="none" xmlns="http://www.w3.org/2000/svg">
<path d="M4.76152 10.8945C5.91382 9.49339 8.4767 6.09759 8.4767 4.19019C8.4767 1.87598 6.57916 0 4.23835 0C1.89843 0 3.09944e-06 1.87598 3.09944e-06 4.19019C3.09944e-06 6.09759 2.58275 9.49339 3.71518 10.8945C3.9867 11.2284 4.49 11.2284 4.76152 10.8945V10.8945ZM4.23835 5.58691C3.45911 5.58691 2.82557 4.96057 2.82557 4.19019C2.82557 3.4198 3.45911 2.79346 4.23835 2.79346C5.01759 2.79346 5.65113 3.4198 5.65113 4.19019C5.65113 4.96057 5.01759 5.58691 4.23835 5.58691Z" fill="#4DA528"/>
<path d="M12.3703 10.8202C13.1859 9.81451 15 7.37695 15 6.00778C15 4.34661 13.6569 3 12 3C10.3438 3 9 4.34661 9 6.00778C9 7.37695 10.8281 9.81451 11.6297 10.8202C11.8219 11.0599 12.1781 11.0599 12.3703 10.8202V10.8202ZM12 7.01038C11.4484 7.01038 11 6.56078 11 6.00778C11 5.45479 11.4484 5.00519 12 5.00519C12.5516 5.00519 13 5.45479 13 6.00778C13 6.56078 12.5516 7.01038 12 7.01038Z" fill="#4DA528"/>
<path d="M4 10.5601C4.0143 10.7993 4.11986 11.0059 4.37344 11.1592C4.54517 11.263 4.89627 11.3341 5.3444 11.1592C5.79253 10.9842 6.50793 10.0455 6.71992 9.79668C7.28008 9.1393 7.92573 8.93479 8.8361 9.01734C9.42116 9.07039 9.91731 9.23001 10.5851 9.83912C11.5498 10.7191 11.9917 12.5906 11.0581 11.8166C10.512 11.3638 11.6929 11.6151 12.1411 10.5336C12.347 10.0365 12.6017 9.52625 13 9.38841" stroke="#4DA528" stroke-width="0.931152"/>
</svg>
