<svg width="214" height="42" viewBox="0 0 214 42" fill="none" xmlns="http://www.w3.org/2000/svg">
<path d="M52.7683 25.3604C52.902 27.9859 53.8891 30.2533 56.2601 31.9363C57.8659 33.076 61.1487 33.8567 65.3389 31.9363C69.5291 30.0158 76.2183 19.7107 78.2004 16.9799C83.4381 9.76377 89.4752 7.51877 97.9874 8.42497C103.458 9.00735 108.097 10.7595 114.341 17.4458C123.361 27.1057 127.493 47.6495 118.764 39.1527C113.657 34.1826 124.7 36.941 128.89 25.0688C130.816 19.6122 133.197 14.0114 136.921 12.4983" stroke="#4DA528" stroke-width="0.931152"/>
<path d="M143.087 5.91138C143.766 5.44491 145.343 5.20929 145.821 5.90437C146.312 6.61932 145.512 7.98694 144.833 8.45341L142.517 10.0438L142.92 14.9079C142.942 15.1822 142.816 15.4499 142.588 15.6068L141.472 16.3733C141.261 16.5179 140.969 16.4204 140.888 16.1782L139.522 12.1006L137.479 13.5041L137.406 15.2373C137.401 15.3579 137.339 15.4702 137.239 15.539L136.406 16.1114C136.252 16.2171 136.041 16.1776 135.924 16.0069C135.919 15.9989 135.904 15.9706 135.894 15.9399L135.017 13.3243L132.89 11.5668C132.866 11.5459 132.844 11.5226 132.826 11.4967C132.721 11.3438 132.76 11.133 132.914 11.0273L133.748 10.4549C133.848 10.3861 133.975 10.3692 134.089 10.4074L135.733 10.9621L137.776 9.55858L134.461 6.82037C134.263 6.65676 134.278 6.34977 134.488 6.20519L135.604 5.43865C135.833 5.28179 136.127 5.25941 136.376 5.37961L140.771 7.50175L143.087 5.91138V5.91138Z" fill="#D1F366"/>
<path d="M12.5576 20.177C11.3882 19.5014 10.1343 19.0661 8.796 18.8712V30H5.63862V18.8712C4.30031 19.0661 3.03995 19.5014 1.85756 20.177L0.78561 17.8188C1.72113 17.26 2.73461 16.8378 3.82605 16.5519C4.91749 16.266 6.04141 16.1231 7.19782 16.1231C8.36722 16.1231 9.49764 16.266 10.5891 16.5519C11.6935 16.8378 12.707 17.26 13.6295 17.8188L12.5576 20.177ZM17.5456 20.8982C17.9095 20.3914 18.3967 20.0081 19.0074 19.7483C19.6311 19.4884 20.3457 19.3585 21.1513 19.3585V22.165C20.8135 22.139 20.5861 22.126 20.4691 22.126C19.5986 22.126 18.9164 22.3729 18.4227 22.8667C17.9289 23.3474 17.6821 24.075 17.6821 25.0495V30H14.6416V19.5144H17.5456V20.8982ZM33.5055 19.5144V30H30.6015V28.7916C29.8479 29.7012 28.7565 30.1559 27.3272 30.1559C26.3397 30.1559 25.4432 29.935 24.6376 29.4933C23.845 29.0515 23.2213 28.4213 22.7665 27.6027C22.3118 26.7841 22.0844 25.8356 22.0844 24.7572C22.0844 23.6787 22.3118 22.7302 22.7665 21.9116C23.2213 21.0931 23.845 20.4629 24.6376 20.0211C25.4432 19.5793 26.3397 19.3585 27.3272 19.3585C28.6655 19.3585 29.7115 19.7807 30.4651 20.6253V19.5144H33.5055ZM27.8534 27.6612C28.62 27.6612 29.2567 27.4013 29.7634 26.8816C30.2702 26.3489 30.5235 25.6407 30.5235 24.7572C30.5235 23.8736 30.2702 23.172 29.7634 22.6523C29.2567 22.1195 28.62 21.8532 27.8534 21.8532C27.0738 21.8532 26.4306 22.1195 25.9239 22.6523C25.4172 23.172 25.1638 23.8736 25.1638 24.7572C25.1638 25.6407 25.4172 26.3489 25.9239 26.8816C26.4306 27.4013 27.0738 27.6612 27.8534 27.6612ZM46.7281 19.5144L42.3039 30H39.166L34.7612 19.5144H37.8991L40.8031 26.6477L43.8046 19.5144H46.7281ZM52.9651 27.7197C53.5108 27.7197 53.9915 27.6417 54.4073 27.4858C54.8361 27.3169 55.2324 27.057 55.5962 26.7062L57.2139 28.4603C56.2264 29.5907 54.7841 30.1559 52.8871 30.1559C51.7047 30.1559 50.6587 29.9285 49.7492 29.4738C48.8397 29.006 48.138 28.3628 47.6443 27.5443C47.1505 26.7257 46.9037 25.7967 46.9037 24.7572C46.9037 23.7307 47.144 22.8082 47.6248 21.9896C48.1185 21.158 48.7877 20.5149 49.6323 20.0601C50.4898 19.5923 51.4513 19.3585 52.5168 19.3585C53.5173 19.3585 54.4268 19.5728 55.2454 20.0016C56.064 20.4174 56.7136 21.0281 57.1944 21.8337C57.6881 22.6263 57.935 23.5683 57.935 24.6597L50.178 26.1605C50.3989 26.6802 50.7432 27.07 51.211 27.3299C51.6917 27.5897 52.2764 27.7197 52.9651 27.7197ZM52.5168 21.6583C51.7502 21.6583 51.1265 21.9052 50.6458 22.3989C50.165 22.8926 49.9116 23.5748 49.8856 24.4453L54.992 23.4514C54.8491 22.9056 54.5567 22.4704 54.115 22.1455C53.6732 21.8207 53.1405 21.6583 52.5168 21.6583ZM63.7403 30.1559C62.5579 30.1559 61.6354 29.8441 60.9727 29.2204C60.31 28.5837 59.9787 27.6872 59.9787 26.5308V15.5384H63.0192V26.3554C63.0192 26.7971 63.1296 27.1415 63.3505 27.3883C63.5844 27.6222 63.9092 27.7392 64.325 27.7392C64.4809 27.7392 64.6368 27.7197 64.7927 27.6807C64.9617 27.6417 65.0916 27.5962 65.1825 27.5443L65.319 29.9025C64.8122 30.0715 64.286 30.1559 63.7403 30.1559ZM70.5732 30.1559C69.3908 30.1559 68.4683 29.8441 67.8056 29.2204C67.143 28.5837 66.8116 27.6872 66.8116 26.5308V15.5384H69.8521V26.3554C69.8521 26.7971 69.9625 27.1415 70.1834 27.3883C70.4173 27.6222 70.7421 27.7392 71.1579 27.7392C71.3138 27.7392 71.4697 27.7197 71.6257 27.6807C71.7946 27.6417 71.9245 27.5962 72.0155 27.5443L72.1519 29.9025C71.6452 30.0715 71.1189 30.1559 70.5732 30.1559ZM78.736 27.7197C79.2817 27.7197 79.7625 27.6417 80.1783 27.4858C80.6071 27.3169 81.0034 27.057 81.3672 26.7062L82.9848 28.4603C81.9973 29.5907 80.5551 30.1559 78.6581 30.1559C77.4757 30.1559 76.4297 29.9285 75.5202 29.4738C74.6106 29.006 73.909 28.3628 73.4152 27.5443C72.9215 26.7257 72.6746 25.7967 72.6746 24.7572C72.6746 23.7307 72.915 22.8082 73.3958 21.9896C73.8895 21.158 74.5587 20.5149 75.4032 20.0601C76.2608 19.5923 77.2223 19.3585 78.2877 19.3585C79.2882 19.3585 80.1978 19.5728 81.0163 20.0016C81.8349 20.4174 82.4846 21.0281 82.9653 21.8337C83.4591 22.6263 83.706 23.5683 83.706 24.6597L75.9489 26.1605C76.1698 26.6802 76.5142 27.07 76.9819 27.3299C77.4627 27.5897 78.0474 27.7197 78.736 27.7197ZM78.2877 21.6583C77.5211 21.6583 76.8975 21.9052 76.4167 22.3989C75.936 22.8926 75.6826 23.5748 75.6566 24.4453L80.763 23.4514C80.6201 22.9056 80.3277 22.4704 79.8859 22.1455C79.4442 21.8207 78.9114 21.6583 78.2877 21.6583ZM88.6537 20.8982C89.0175 20.3914 89.5048 20.0081 90.1154 19.7483C90.7391 19.4884 91.4538 19.3585 92.2593 19.3585V22.165C91.9215 22.139 91.6941 22.126 91.5772 22.126C90.7066 22.126 90.0245 22.3729 89.5307 22.8667C89.037 23.3474 88.7901 24.075 88.7901 25.0495V30H85.7497V19.5144H88.6537V20.8982ZM97.6329 30.1559C96.7624 30.1559 95.9113 30.052 95.0798 29.8441C94.2482 29.6232 93.5855 29.3503 93.0918 29.0255L94.1053 26.8426C94.573 27.1415 95.1382 27.3883 95.8009 27.5832C96.4635 27.7651 97.1132 27.8561 97.7499 27.8561C99.0362 27.8561 99.6794 27.5378 99.6794 26.9011C99.6794 26.6022 99.504 26.3879 99.1532 26.2579C98.8023 26.128 98.2631 26.0175 97.5355 25.9266C96.6779 25.7967 95.9698 25.6472 95.4111 25.4783C94.8524 25.3094 94.3651 25.0106 93.9493 24.5818C93.5465 24.153 93.3451 23.5423 93.3451 22.7497C93.3451 22.0871 93.5335 21.5024 93.9104 20.9956C94.3002 20.4759 94.8589 20.0731 95.5865 19.7872C96.3271 19.5014 97.1977 19.3585 98.1982 19.3585C98.9388 19.3585 99.6729 19.4429 100.401 19.6118C101.141 19.7677 101.752 19.9886 102.233 20.2745L101.219 22.4379C100.297 21.9181 99.2896 21.6583 98.1982 21.6583C97.5485 21.6583 97.0612 21.7492 96.7364 21.9311C96.4116 22.113 96.2492 22.3469 96.2492 22.6328C96.2492 22.9576 96.4246 23.185 96.7754 23.3149C97.1262 23.4449 97.6849 23.5683 98.4515 23.6852C99.3091 23.8282 100.011 23.9841 100.556 24.153C101.102 24.3089 101.576 24.6013 101.979 25.03C102.382 25.4588 102.583 26.0565 102.583 26.8231C102.583 27.4728 102.389 28.051 101.999 28.5577C101.609 29.0645 101.037 29.4608 100.284 29.7466C99.543 30.0195 98.6594 30.1559 97.6329 30.1559ZM122.706 16.357V30H119.549V24.4064H113.351V30H110.193V16.357H113.351V21.7362H119.549V16.357H122.706ZM125.719 19.5144H128.76V30H125.719V19.5144ZM127.24 18.0526C126.681 18.0526 126.226 17.8902 125.875 17.5654C125.525 17.2405 125.349 16.8378 125.349 16.357C125.349 15.8762 125.525 15.4735 125.875 15.1486C126.226 14.8238 126.681 14.6614 127.24 14.6614C127.798 14.6614 128.253 14.8173 128.604 15.1291C128.955 15.441 129.13 15.8308 129.13 16.2985C129.13 16.8053 128.955 17.2276 128.604 17.5654C128.253 17.8902 127.798 18.0526 127.24 18.0526ZM145.01 19.3585C146.323 19.3585 147.362 19.7483 148.129 20.5279C148.908 21.2945 149.298 22.4509 149.298 23.9971V30H146.258V24.4648C146.258 23.6333 146.082 23.0161 145.731 22.6133C145.394 22.1975 144.906 21.9896 144.27 21.9896C143.555 21.9896 142.99 22.2235 142.574 22.6912C142.158 23.146 141.95 23.8282 141.95 24.7377V30H138.91V24.4648C138.91 22.8147 138.247 21.9896 136.922 21.9896C136.22 21.9896 135.662 22.2235 135.246 22.6912C134.83 23.146 134.622 23.8282 134.622 24.7377V30H131.582V19.5144H134.486V20.7228C134.875 20.281 135.35 19.9432 135.908 19.7093C136.48 19.4754 137.104 19.3585 137.779 19.3585C138.52 19.3585 139.189 19.5079 139.787 19.8067C140.385 20.0926 140.865 20.5149 141.229 21.0736C141.658 20.5279 142.197 20.1056 142.847 19.8067C143.51 19.5079 144.231 19.3585 145.01 19.3585ZM162.779 19.5144V30H159.875V28.7916C159.121 29.7012 158.03 30.1559 156.601 30.1559C155.613 30.1559 154.717 29.935 153.911 29.4933C153.118 29.0515 152.495 28.4213 152.04 27.6027C151.585 26.7841 151.358 25.8356 151.358 24.7572C151.358 23.6787 151.585 22.7302 152.04 21.9116C152.495 21.0931 153.118 20.4629 153.911 20.0211C154.717 19.5793 155.613 19.3585 156.601 19.3585C157.939 19.3585 158.985 19.7807 159.739 20.6253V19.5144H162.779ZM157.127 27.6612C157.894 27.6612 158.53 27.4013 159.037 26.8816C159.544 26.3489 159.797 25.6407 159.797 24.7572C159.797 23.8736 159.544 23.172 159.037 22.6523C158.53 22.1195 157.894 21.8532 157.127 21.8532C156.347 21.8532 155.704 22.1195 155.197 22.6523C154.691 23.172 154.437 23.8736 154.437 24.7572C154.437 25.6407 154.691 26.3489 155.197 26.8816C155.704 27.4013 156.347 27.6612 157.127 27.6612ZM169.356 30.1559C168.173 30.1559 167.251 29.8441 166.588 29.2204C165.925 28.5837 165.594 27.6872 165.594 26.5308V15.5384H168.634V26.3554C168.634 26.7971 168.745 27.1415 168.966 27.3883C169.2 27.6222 169.524 27.7392 169.94 27.7392C170.096 27.7392 170.252 27.7197 170.408 27.6807C170.577 27.6417 170.707 27.5962 170.798 27.5443L170.934 29.9025C170.427 30.0715 169.901 30.1559 169.356 30.1559ZM182.878 19.5144V30H179.974V28.7916C179.22 29.7012 178.129 30.1559 176.7 30.1559C175.712 30.1559 174.816 29.935 174.01 29.4933C173.218 29.0515 172.594 28.4213 172.139 27.6027C171.684 26.7841 171.457 25.8356 171.457 24.7572C171.457 23.6787 171.684 22.7302 172.139 21.9116C172.594 21.0931 173.218 20.4629 174.01 20.0211C174.816 19.5793 175.712 19.3585 176.7 19.3585C178.038 19.3585 179.084 19.7807 179.838 20.6253V19.5144H182.878ZM177.226 27.6612C177.993 27.6612 178.629 27.4013 179.136 26.8816C179.643 26.3489 179.896 25.6407 179.896 24.7572C179.896 23.8736 179.643 23.172 179.136 22.6523C178.629 22.1195 177.993 21.8532 177.226 21.8532C176.446 21.8532 175.803 22.1195 175.296 22.6523C174.79 23.172 174.536 23.8736 174.536 24.7572C174.536 25.6407 174.79 26.3489 175.296 26.8816C175.803 27.4013 176.446 27.6612 177.226 27.6612ZM196.257 19.5144V28.2459C196.257 30.1689 195.769 31.5982 194.795 32.5337C193.82 33.4692 192.404 33.937 190.546 33.937C189.559 33.937 188.623 33.8135 187.739 33.5667C186.869 33.3198 186.135 32.9625 185.537 32.4947L186.745 30.3118C187.187 30.6757 187.726 30.9615 188.363 31.1694C189 31.3773 189.643 31.4812 190.293 31.4812C191.306 31.4812 192.047 31.2474 192.515 30.7796C192.982 30.3118 193.216 29.5972 193.216 28.6357V28.2849C192.826 28.6747 192.365 28.9735 191.832 29.1814C191.3 29.3893 190.728 29.4933 190.117 29.4933C188.74 29.4933 187.649 29.1035 186.843 28.3239C186.037 27.5313 185.635 26.3489 185.635 24.7767V19.5144H188.675V24.3284C188.675 26.0305 189.383 26.8816 190.799 26.8816C191.527 26.8816 192.112 26.6477 192.554 26.18C192.995 25.6992 193.216 24.9911 193.216 24.0555V19.5144H196.257ZM209.715 19.5144V30H206.811V28.7916C206.057 29.7012 204.966 30.1559 203.537 30.1559C202.549 30.1559 201.653 29.935 200.847 29.4933C200.054 29.0515 199.431 28.4213 198.976 27.6027C198.521 26.7841 198.294 25.8356 198.294 24.7572C198.294 23.6787 198.521 22.7302 198.976 21.9116C199.431 21.0931 200.054 20.4629 200.847 20.0211C201.653 19.5793 202.549 19.3585 203.537 19.3585C204.875 19.3585 205.921 19.7807 206.674 20.6253V19.5144H209.715ZM204.063 27.6612C204.829 27.6612 205.466 27.4013 205.973 26.8816C206.48 26.3489 206.733 25.6407 206.733 24.7572C206.733 23.8736 206.48 23.172 205.973 22.6523C205.466 22.1195 204.829 21.8532 204.063 21.8532C203.283 21.8532 202.64 22.1195 202.133 22.6523C201.627 23.172 201.373 23.8736 201.373 24.7572C201.373 25.6407 201.627 26.3489 202.133 26.8816C202.64 27.4013 203.283 27.6612 204.063 27.6612Z" fill="#4DA528"/>
</svg>
