<svg width="60" height="52" viewBox="0 0 60 52" fill="none" xmlns="http://www.w3.org/2000/svg">
<path d="M12.0002 46.5C11.3252 46.5 10.7011 46.724 10.2002 47.102C9.63415 46.349 8.81021 45.8021 7.86018 45.593C7.47523 44.3811 6.33816 43.5001 5.00024 43.5001C3.6492 43.5001 2.50522 44.397 2.13023 45.6261C0.898245 46 0.000244141 47.1461 0.000244141 48.4981C0.000244141 50.1531 1.34625 51.5 3.00022 51.5C3.55217 51.5 4.00017 51.052 4.00017 50.5001C4.00017 49.9481 3.55217 49.5001 3.00022 49.5001C2.44921 49.5001 2.00027 49.0501 2.00027 48.4982C2.00027 47.9632 2.42226 47.5252 2.9503 47.4992C3.51725 47.5182 4.00029 47.0692 4.00029 46.5002C4.00029 45.9491 4.44923 45.5002 5.00024 45.5002C5.55126 45.5002 6.0002 45.9491 6.0002 46.5002C6.0002 47.0521 6.4482 47.5001 7.00015 47.5001C8.10311 47.5001 9.00017 48.3971 9.00017 49.5001C9.00017 50.0521 9.44818 50.5001 10.0001 50.5001C10.5521 50.5001 11.0001 50.0521 11.0001 49.5001C11.0001 48.9491 11.449 48.5002 12 48.5002C12.551 48.5002 13 48.9491 13 49.5001C13 50.0521 13.448 50.5001 13.9999 50.5001C14.5519 50.5001 14.9999 50.0521 14.9999 49.5001C15.0001 47.846 13.6541 46.5 12.0002 46.5Z" fill="#15803D"/>
<path d="M16.0001 34.5001C15.3251 34.5001 14.7011 34.724 14.2001 35.1021C13.6341 34.349 12.8102 33.8021 11.8602 33.5931C11.4752 32.3811 10.3381 31.5001 9.00022 31.5001C7.34625 31.5001 6.0013 32.8451 6.00024 34.499V34.5C6.00024 35.0519 6.44825 35.4999 7.0002 35.4999C7.55215 35.4999 8.00015 35.0519 8.00015 34.5C8.00015 33.949 8.44909 33.5 9.0001 33.5C9.55112 33.5 10.0001 33.949 10.0001 34.5C10.0001 35.0519 10.4481 35.4999 11 35.4999C12.103 35.4999 13 36.3969 13 37.5C13 38.0519 13.448 38.4999 14 38.4999C14.5519 38.4999 14.9999 38.0519 14.9999 37.5C14.9999 36.9489 15.4489 36.5 15.9999 36.5C16.5509 36.5 16.9998 36.9489 16.9998 37.5C16.9998 38.0519 17.4479 38.4999 17.9998 38.4999C18.5517 38.4999 18.9998 38.0519 18.9998 37.5C19.0001 35.8461 17.6541 34.5001 16.0001 34.5001Z" fill="#15803D"/>
<path d="M44.9999 40.5C44.3249 40.5 43.7009 40.724 43.1999 41.102C42.6339 40.349 41.8099 39.8021 40.8599 39.593C40.475 38.3811 39.3379 37.5001 38 37.5001C36.346 37.5001 35.0011 38.845 35 40.499V40.5C35 41.052 35.448 41.5 36 41.5C36.5519 41.5 36.9999 41.052 36.9999 40.5C36.9999 39.949 37.4488 39.5001 37.9999 39.5001C38.5509 39.5001 38.9998 39.949 38.9998 40.5C38.9998 41.052 39.4478 41.5 39.9998 41.5C41.1027 41.5 41.9998 42.3969 41.9998 43.5C41.9998 44.052 42.4478 44.5 42.9997 44.5C43.5517 44.5 43.9997 44.052 43.9997 43.5C43.9997 42.949 44.4486 42.5001 44.9996 42.5001C45.5507 42.5001 45.9996 42.949 45.9996 43.5C45.9996 44.052 46.4476 44.5 46.9996 44.5C47.5515 44.5 47.9995 44.052 47.9995 43.5C47.9999 41.846 46.6539 40.5 44.9999 40.5Z" fill="#15803D"/>
<path d="M29.0001 43.5C28.3251 43.5 27.7011 43.724 27.2001 44.102C26.6341 43.349 25.8102 42.8021 24.8602 42.593C24.4752 41.3811 23.3381 40.5001 22.0002 40.5001C20.3463 40.5001 19.0013 41.845 19.0002 43.499V43.5C19.0002 44.052 19.4482 44.5 20.0002 44.5C20.5521 44.5 21.0002 44.052 21.0002 43.5C21.0002 42.949 21.4491 42.5001 22.0001 42.5001C22.5511 42.5001 23.0001 42.949 23.0001 43.5C23.0001 44.052 23.4481 44.5 24 44.5C25.103 44.5 26 45.3969 26 46.5C26 47.052 26.448 47.5 27 47.5C27.5519 47.5 27.9999 47.052 27.9999 46.5C27.9999 45.949 28.4489 45.5001 28.9999 45.5001C29.5509 45.5001 29.9998 45.949 29.9998 46.5C29.9998 47.052 30.4479 47.5 30.9998 47.5C31.5517 47.5 31.9998 47.052 31.9998 46.5C32.0001 44.846 30.6541 43.5 29.0001 43.5Z" fill="#15803D"/>
<path d="M59.5219 45.6467C56.7769 43.9667 54.4019 39.5167 52.477 34.4848C52.469 34.4567 52.456 34.4327 52.447 34.4067C51.628 32.2587 50.892 30.0128 50.245 27.8257C56.038 25.9938 60 20.6588 60 14.4999C60 6.78091 53.7201 0.499939 46.0001 0.499939C39.3761 0.499939 33.7531 5.11088 32.3482 11.4419C29.9922 9.7619 27.7443 6.51395 26.8653 4.99897C26.6502 4.62795 26.2243 4.436 25.8043 4.52003C25.3843 4.60405 25.0642 4.94506 25.0093 5.36998C24.9813 5.57599 24.2692 10.355 18.2474 10.488C16.6154 6.60196 15.7563 3.45304 15.5234 2.54109C15.4824 2.38008 15.4594 2.28211 15.4574 2.27508C15.4404 2.20207 15.4074 2.1361 15.3754 2.07012C15.3634 2.04516 15.3054 1.94614 15.2864 1.92118C15.1294 1.70415 14.8954 1.54724 14.6194 1.5102H14.6184H14.6174C14.2044 1.4502 13.8044 1.65716 13.6054 2.02126C13.2714 2.6332 12.9443 3.22828 12.6194 3.81526C12.5113 4.01026 12.4063 4.19729 12.3004 4.38831C12.0804 4.78334 11.8614 5.17428 11.6454 5.5583C11.5344 5.75634 11.4235 5.95333 11.3134 6.14634C11.0874 6.5463 10.8645 6.93829 10.6424 7.3243C10.5604 7.46926 10.4754 7.61832 10.3934 7.76035C10.0945 8.27832 9.79939 8.78632 9.50947 9.28038C9.45943 9.3644 9.41244 9.44338 9.36345 9.52741C9.1115 9.95444 8.86342 10.3724 8.6185 10.7804C8.5565 10.8834 8.49545 10.9864 8.43451 11.0874C7.85057 12.0564 7.2855 12.9723 6.74257 13.8293C6.72558 13.8563 6.70753 13.8843 6.6896 13.9123C6.41058 14.3513 6.1366 14.7783 5.8686 15.1873C5.86754 15.1893 5.86754 15.1913 5.8666 15.1933C2.2146 20.7752 0.807658 21.7012 0.634691 21.8002C0.167702 21.9822 -0.0972565 22.4912 0.0336409 22.9872C0.175671 23.5193 0.718596 23.8362 1.2566 23.6973C1.75558 23.5653 3.31662 22.6292 7.08851 16.9753C8.11354 17.4414 9.02045 18.1273 9.72954 19.0142L12.2195 22.1252C12.4085 22.3622 12.6965 22.5002 12.9995 22.5002C13.3035 22.5002 13.5915 22.3622 13.7806 22.1252L16.2695 19.0142C17.0195 18.0783 17.9905 17.3663 19.0875 16.9013C22.0374 22.2322 26.2954 27.7182 32.2414 30.7042C32.3855 30.7772 32.5384 30.8112 32.6884 30.8112C33.0554 30.8112 33.4073 30.6092 33.5833 30.2602C33.8313 29.7662 33.6323 29.1652 33.1384 28.9172C27.2324 25.9503 23.0395 20.1473 20.2215 14.7113L22.1145 16.3282C23.7206 17.6992 25.5385 18.7702 27.5165 19.5122L29.1775 20.1351C31.3465 20.9482 33.2764 22.1911 34.9145 23.8291L36.2934 25.2071C36.4814 25.3961 36.7364 25.5001 37.0004 25.5001C37.0234 25.5001 37.0474 25.499 37.0714 25.4981C37.3604 25.4771 37.6264 25.332 37.8004 25.1001C39.6484 22.6371 42.1493 20.7621 45.0334 19.6812L45.9734 19.3291C46.8634 23.3021 48.3594 29.201 50.4113 34.639C49.5323 36.079 48.5403 36.8109 47.3824 36.855C44.1314 36.995 40.1174 31.915 38.8385 29.954C38.6095 29.6039 38.1855 29.432 37.7785 29.5249C37.3715 29.618 37.0635 29.9549 37.0095 30.37C36.9826 30.57 36.3215 35.083 30.7835 35.4739C30.3496 33.8059 29.9056 33.0609 29.8495 32.972C29.6815 32.7031 29.3965 32.529 29.0815 32.5039C28.7635 32.4739 28.4555 32.603 28.2475 32.8419C27.6715 33.5019 27.2295 33.5299 26.9475 33.4919C25.4956 33.302 23.6926 30.672 22.8976 29.059C22.7326 28.725 22.3955 28.5091 22.0225 28.501C21.6586 28.4959 21.3036 28.692 21.1235 29.0189C20.2145 30.6749 19.2085 31.4869 18.0474 31.4999C18.0375 31.5009 18.0265 31.5009 18.0164 31.5009C14.9004 31.5009 11.0794 26.091 9.86548 23.999C9.65044 23.628 9.22353 23.435 8.80447 23.5201C8.38447 23.6041 8.06444 23.9451 8.00948 24.37C7.98147 24.579 7.26054 29.5 1.00055 29.5C0.448598 29.5 0.000594263 29.948 0.000594263 30.4999C0.000594263 31.0529 0.448598 31.4999 1.00055 31.4999C6.03746 31.4999 8.29248 28.7999 9.27451 26.7859C11.0233 29.3208 14.4682 33.5747 18.0692 33.4997C19.5423 33.4836 20.8372 32.7827 21.9342 31.4127C22.9151 32.9727 24.6542 35.2066 26.6852 35.4746C27.1971 35.5406 27.8752 35.5026 28.5941 35.1126C28.7281 35.5196 28.8791 36.0477 29.0231 36.7117C29.1231 37.1716 29.5292 37.4996 30.0001 37.4996C35.1311 37.4996 37.375 34.6977 38.3281 32.6727C40.1181 34.9917 43.6451 38.8566 47.267 38.8566C47.33 38.8566 47.394 38.8556 47.456 38.8536C48.919 38.7986 50.1999 38.1196 51.287 36.8416C53.2579 41.5536 55.6659 45.6315 58.4769 47.3525C58.6409 47.4525 58.8209 47.4995 58.9989 47.4995C59.3349 47.4995 59.6639 47.3295 59.8528 47.0225C60.1409 46.5516 59.9929 45.9356 59.5219 45.6467ZM44.331 17.8078C41.449 18.8889 38.9061 20.6738 36.9171 23.0037L36.329 22.4148C34.4871 20.5738 32.317 19.1768 29.8791 18.2618L28.2181 17.6388C26.458 16.9788 24.842 16.0259 23.4131 14.8058L20.4341 12.2629C20.4491 12.2598 20.4621 12.2539 20.4771 12.2509C20.8441 12.1729 21.1851 12.076 21.5121 11.9659C21.582 11.943 21.6521 11.9179 21.721 11.8929C22.0391 11.778 22.342 11.6529 22.623 11.512C22.658 11.495 22.69 11.4749 22.7249 11.4579C22.9879 11.3219 23.2349 11.1749 23.4679 11.021C23.5069 10.996 23.5469 10.9709 23.5849 10.945C23.8249 10.78 24.0468 10.606 24.2548 10.427C24.2978 10.39 24.3378 10.3531 24.3799 10.3161C24.5839 10.133 24.7769 9.94506 24.9509 9.75311C24.9619 9.7401 24.9729 9.72709 24.984 9.71409C25.152 9.52612 25.304 9.33604 25.4459 9.14514C25.4709 9.11116 25.4979 9.07811 25.5218 9.04319C25.6608 8.85019 25.7868 8.65824 25.9008 8.46816C25.9238 8.42914 25.9458 8.39117 25.9679 8.3532C26.0799 8.16125 26.1849 7.97023 26.2738 7.78625C27.6249 9.7442 29.9927 12.6992 32.6558 13.9282C32.6608 13.9313 32.6648 13.9353 32.6708 13.9382C32.7228 13.9622 32.7798 13.9852 32.8348 14.0092C32.9658 14.0652 33.0977 14.1173 33.2307 14.1642C33.2667 14.1773 33.3037 14.1883 33.3408 14.2013C33.8918 14.3873 34.4518 14.5013 35.0168 14.5013C35.0338 14.5013 35.0518 14.5013 35.0688 14.5003C36.5418 14.4843 37.8367 13.7834 38.9337 12.4134C39.1667 12.7853 39.4468 13.1953 39.7598 13.6074C39.7748 13.6274 39.7878 13.6464 39.8028 13.6663C39.8727 13.7563 39.9497 13.8453 40.0218 13.9343C40.9968 15.1403 42.2658 16.2873 43.6848 16.4753C44.0938 16.5283 44.6088 16.5053 45.1618 16.3013C45.1669 16.2993 45.1718 16.2973 45.1768 16.2953C45.2238 16.2783 45.2688 16.2683 45.3169 16.2472C45.3819 16.5722 45.4589 16.9472 45.5439 17.3532L44.331 17.8078Z" fill="#15803D"/>
</svg>
