<svg width="57" height="60" viewBox="0 0 57 60" fill="none" xmlns="http://www.w3.org/2000/svg">
<path d="M3.67454 60H58.22C59.7262 60 60.9473 58.9396 60.9473 57.6316V49.7368C60.9473 48.4288 59.7262 47.3684 58.22 47.3684H57.6902H57.3109H4.58363H3.67454C2.16836 47.3684 0.947266 48.4288 0.947266 49.7368V57.6316C0.947266 58.9396 2.16836 60 3.67454 60Z" fill="#15803D"/>
<path d="M3.67454 23.6842H8.21999V36.3158H7.3109C5.80472 36.3158 4.58363 37.3762 4.58363 38.6842V42.6316H57.3109V38.6842C57.3109 37.3762 56.0898 36.3158 54.5836 36.3158H53.6745V23.6842H58.22C59.7262 23.6842 60.9473 22.6238 60.9473 21.3158C60.9473 20.0078 59.7262 18.9474 58.22 18.9474C54.6604 18.9474 51.626 16.9625 50.5034 14.2006C50.6511 14.205 50.7985 14.2105 50.9473 14.2105C52.4534 14.2105 53.6745 13.1501 53.6745 11.8421C53.6745 10.5341 52.4534 9.47368 50.9473 9.47368C46.4356 9.47368 42.7654 6.28626 42.7654 2.36842C42.7654 1.06042 41.5444 0 40.0382 0H21.8564C20.3502 0 19.1291 1.06042 19.1291 2.36842C19.1291 6.28626 15.4587 9.47368 10.9473 9.47368C9.44108 9.47368 8.21999 10.5341 8.21999 11.8421C8.21999 13.1501 9.44108 14.2105 10.9473 14.2105C11.0958 14.2105 11.2431 14.2061 11.3905 14.2018C10.2676 16.9631 7.23363 18.9474 3.67454 18.9474C2.16836 18.9474 0.947266 20.0078 0.947266 21.3158C0.947266 22.6238 2.16836 23.6842 3.67454 23.6842ZM42.7654 23.6842H48.22V36.3158H42.7654V23.6842ZM24.5836 23.6842H37.3109V36.3158H24.5836V23.6842ZM13.6745 23.6842H19.1291V36.3158H13.6745V23.6842Z" fill="#15803D"/>
</svg>
