<svg width="128" height="128" viewBox="0 0 128 128" fill="none" xmlns="http://www.w3.org/2000/svg">
<path d="M68.3575 55.4229C62.3515 55.4229 57.2285 50.9139 56.4405 44.9369C55.5715 38.3429 60.2155 32.2709 66.7925 31.4009C67.319 31.3319 67.8495 31.2971 68.3805 31.2969C74.3865 31.2969 79.5085 35.8039 80.2945 41.7809C81.1655 48.3729 76.5235 54.4459 69.9465 55.3179C69.4205 55.3869 68.8855 55.4229 68.3575 55.4229ZM68.3805 35.2959C68.0275 35.2959 67.6705 35.3189 67.3175 35.3659C62.9255 35.9469 59.8245 40.0059 60.4055 44.4129C60.9325 48.4089 64.3505 51.4229 68.3575 51.4229C68.7105 51.4229 69.0685 51.3989 69.4205 51.3519C73.8115 50.7699 76.9095 46.7099 76.3275 42.3029C75.8035 38.3079 72.3865 35.2959 68.3805 35.2959Z" fill="#4DA528"/>
<path d="M75.958 87.7383L55.113 85.3883L57.992 59.7133C58.362 56.4053 61.329 53.9643 64.707 54.3463L73.477 55.3343C76.804 55.7093 79.207 58.7273 78.835 62.0613L75.958 87.7383ZM59.534 81.8613L72.429 83.3143L74.861 61.6173C74.9227 61.0686 74.7646 60.5178 74.4213 60.0853C74.078 59.6528 73.5774 59.3738 73.029 59.3093L64.258 58.3213C63.9868 58.291 63.7123 58.3146 63.4502 58.3907C63.1882 58.4667 62.9437 58.5938 62.7308 58.7646C62.518 58.9353 62.3409 59.1464 62.2099 59.3858C62.0788 59.6251 61.9962 59.888 61.967 60.1593L59.534 81.8613ZM66.035 92.8993H81.558V96.8993H66.035V92.8993ZM57.275 102.858H72.797V106.858H57.275V102.858ZM26.833 123.364H71.63V127.364H26.833V123.364ZM8.296 75.9563H12.296V94.3973H8.296V75.9563ZM55.504 92.8993H61.602V96.8993H55.504V92.8993ZM96.143 43.6973C89.509 43.6973 84.112 38.2853 84.112 31.6343C84.112 24.9823 89.509 19.5703 96.143 19.5703C102.778 19.5703 108.175 24.9823 108.175 31.6343C108.175 38.2853 102.777 43.6973 96.143 43.6973ZM96.143 23.5693C91.714 23.5693 88.112 27.1873 88.112 31.6333C88.112 36.0793 91.715 39.6963 96.143 39.6963C100.571 39.6963 104.175 36.0793 104.175 31.6333C104.175 27.1873 100.571 23.5693 96.143 23.5693ZM38.027 56.0083C31.23 56.0083 25.699 50.4633 25.699 43.6473C25.699 36.8343 31.229 31.2903 38.027 31.2903C41.321 31.2903 44.417 32.5763 46.746 34.9113C47.8941 36.0574 48.8039 37.4193 49.4232 38.9187C50.0424 40.418 50.3588 42.0251 50.354 43.6473C50.354 50.4633 44.824 56.0083 38.027 56.0083ZM38.029 35.2893C33.436 35.2893 29.699 39.0383 29.699 43.6463C29.699 48.2563 33.435 52.0073 38.027 52.0073C42.619 52.0073 46.354 48.2563 46.354 43.6463C46.354 39.0383 42.619 35.2893 38.029 35.2893ZM9.699 69.4813C4.351 69.4813 0 65.1193 0 59.7573C0 54.3953 4.351 50.0323 9.699 50.0323C15.047 50.0323 19.398 54.3943 19.398 59.7573C19.398 65.1203 15.047 69.4813 9.699 69.4813ZM9.699 54.0323C6.557 54.0323 4 56.6003 4 59.7573C4 62.9133 6.557 65.4823 9.699 65.4823C12.841 65.4823 15.398 62.9143 15.398 59.7573C15.398 56.6003 12.841 54.0323 9.699 54.0323Z" fill="#4DA528"/>
<path d="M80.3365 122.517L70.3965 113.563L85.2085 98.6764L86.3645 89.2734L90.3355 89.7614L89.0115 100.525L76.1965 113.404L80.1665 116.98L94.1255 102.755L95.2965 93.2124L99.2675 93.6984L97.9305 104.589L80.3365 122.517Z" fill="#4DA528"/>
<path d="M111.017 121.877L87.0117 79.0416V42.3316L98.8987 39.5626L109.456 58.7116H128V72.0836H101.397L100.355 70.5616V75.5766L122.693 115.4L111.017 121.877ZM91.0117 77.9966L112.56 116.447L117.239 113.851L96.3547 76.6216V57.6366L103.506 68.0846H124V62.7126H107.092L96.8567 44.1456L91.0107 45.5076L91.0117 77.9966ZM121.08 0.640625H125.08V52.9696H121.08V0.640625Z" fill="#4DA528"/>
<path d="M122.078 26.8525L100.674 14.4585L122.078 2.0625L124.082 5.5235L108.656 14.4575L124.082 23.3915L122.078 26.8525ZM45.4608 116.862H31.6738V85.4315H35.6738V112.862H41.4608V85.4315H45.4608V116.862Z" fill="#4DA528"/>
<path d="M48.9575 88.1162H27.4805V61.5752C27.4805 58.1512 30.2585 55.3672 33.6745 55.3672H42.7635C46.1795 55.3672 48.9575 58.1512 48.9575 61.5752V88.1162ZM31.4805 84.1162H44.9575V61.5752C44.9588 60.9916 44.7285 60.4313 44.3172 60.0174C43.9058 59.6034 43.347 59.3696 42.7635 59.3672H33.6745C32.4655 59.3672 31.4805 60.3572 31.4805 61.5752V84.1162Z" fill="#4DA528"/>
</svg>
